# xmcd
# 
# Track frame offsets:
#     183
#     13710
#     28950
#     41805
#     55895
#     70678
#     84433
#     97753
#     110668
#     123188
#     135658
#     150680
#     165628
#     180453
#     194198
#     208683
#     221973
#     236510
#     247425
#     260138
# 
# Disc length: 3617
# 
# Revision: 4
# Processed by: cddbd v1.5.2PL0 Copyright (c) Steve Scherf et al.
# Submitted via: fre:ac v1.0.31
# 
DISCID=2d0e1f14
DTITLE=Various Artist - The Best Of Boogie Woogie
DYEAR=1996
DGENRE=Boogie Woogie
TTITLE0=Albert Ammons - Boogie Woogie Stomp
TTITLE1='Pine Top' Smith - Pine Top's Boogie Woogie
TTITLE2=Jimmy Yancey - Yancey Stomp
TTITLE3='Cow Cow' Davenport - Cow Cow Blues
TTITLE4=Count Basie Quintet - Boogie Woogie
TTITLE5='Cow Cow' Davenport - State Street Jive
TTITLE6=Big Maceo - Chicago Breakdown
TTITLE7=Meade 'Lux' Lewis - Honky Tonk Train Blues
TTITLE8='Pine Top' Smith - Pine Top Blues
TTITLE9=Mary Lou Williams - Mr Freddiie Blues
TTITLE10='Montana' Taylor - Detroit Rocks
TTITLE11=Charles Avery - Dearborn Sttreet Breakdown
TTITLE12=Meade 'Lux' Lewis - Yancey Special
TTITLE13=Count Basie - Boogie Woogie
TTITLE14=Wesley Wallace - No. 29
TTITLE15=Romeo Nelson - Head Rag Hop
TTITLE16='Speckled Red' - The Dirty Dozen
TTITLE17=Albert Ammons - Shout For Joy
TTITLE18=Pete Johnson - Roll 'Em Pete
TTITLE19='Speckled Red' - The Right String - But The Wrong Yo-Yo
EXTD=
EXTT0=
EXTT1=
EXTT2=
EXTT3=
EXTT4=
EXTT5=
EXTT6=
EXTT7=
EXTT8=
EXTT9=
EXTT10=
EXTT11=
EXTT12=
EXTT13=
EXTT14=
EXTT15=
EXTT16=
EXTT17=
EXTT18=
EXTT19=
PLAYORDER=
